<?xml version="1.0" standalone="no"?>
<!DOCTYPE svg PUBLIC "-//W3C//DTD SVG 20010904//EN"
 "http://www.w3.org/TR/2001/REC-SVG-20010904/DTD/svg10.dtd">
<svg version="1.0" xmlns="http://www.w3.org/2000/svg"
 width="507.000000pt" height="507.000000pt" viewBox="0 0 507.000000 507.000000"
 preserveAspectRatio="xMidYMid meet">
<metadata>
Created by potrace 1.14, written by Peter Selinger 2001-2017
</metadata>
<g transform="translate(0.000000,507.000000) scale(0.100000,-0.100000)"
fill="#000000" stroke="none">
<path d="M2430 4911 c-49 -10 -77 -27 -98 -58 -15 -25 -17 -60 -17 -363 0
-286 3 -346 18 -412 57 -245 223 -380 547 -444 75 -15 191 -18 980 -21 888 -4
895 -3 928 17 45 28 62 74 62 165 0 90 -23 146 -67 163 -19 8 -296 13 -898 15
-905 5 -984 8 -1091 48 -65 24 -77 39 -78 92 l-1 42 1020 5 c823 4 1024 8
1043 18 40 23 62 86 62 181 0 65 -5 94 -20 127 -39 79 40 74 -1119 74 l-1031
0 0 138 c0 150 -6 169 -59 196 -34 18 -134 27 -181 17z"/>
<path d="M1095 4774 c-129 -13 -273 -49 -390 -99 -66 -28 -426 -195 -486 -226
-89 -45 -98 -92 -38 -211 49 -96 118 -158 177 -158 11 0 151 61 311 135 160
74 317 142 349 151 67 20 197 23 262 5 25 -7 185 -75 355 -150 171 -76 320
-142 333 -145 83 -26 207 118 219 254 5 49 2 59 -18 83 -26 28 -450 230 -610
290 -138 52 -341 82 -464 71z"/>
<path d="M830 3955 c-431 -68 -628 -322 -630 -813 -1 -313 64 -529 200 -663
106 -105 216 -149 423 -171 l107 -12 0 -863 0 -863 -350 0 c-389 0 -394 -1
-424 -64 -23 -50 -22 -175 3 -224 36 -71 -25 -67 980 -67 1010 0 939 -5 978
68 25 45 25 179 0 224 -33 62 -39 63 -427 63 l-350 0 0 885 0 885 303 0 c339
0 352 3 392 70 28 50 28 180 0 230 -42 72 -25 70 -648 70 -470 0 -570 2 -634
16 -146 30 -183 65 -183 174 l0 60 675 0 c759 0 721 -4 756 73 26 58 26 186 0
244 -35 77 3 73 -756 73 l-675 0 0 60 c0 72 19 122 55 146 67 44 109 47 748
53 l609 6 28 32 c16 18 34 52 41 75 14 53 7 144 -15 186 -33 63 -22 62 -598
61 -382 -1 -546 -5 -608 -14z"/>
<path d="M2391 3552 c-19 -9 -44 -30 -55 -45 -21 -28 -21 -33 -21 -1015 0
-897 2 -997 18 -1100 63 -401 234 -573 594 -598 l93 -7 -1 -46 c0 -68 -19
-112 -56 -134 -45 -26 -170 -37 -430 -37 l-221 0 -31 -26 c-38 -32 -54 -89
-49 -169 5 -70 22 -110 61 -139 27 -20 40 -21 325 -21 242 1 312 4 375 18 159
34 253 101 312 221 38 75 64 191 65 284 l0 52 173 0 173 0 12 -103 c31 -279
141 -399 417 -459 42 -8 160 -12 385 -13 366 0 364 -1 394 76 21 53 21 170 0
215 -28 59 -39 61 -364 67 -323 6 -366 12 -405 59 -21 25 -25 40 -25 94 l0 64
358 0 c384 0 387 1 426 53 29 40 36 178 11 231 -32 68 19 64 -956 69 -576 3
-900 8 -929 15 -196 46 -300 149 -348 347 -12 50 -16 223 -21 1026 -6 948 -6
967 -26 989 -11 13 -34 29 -52 36 -47 20 -160 18 -202 -4z"/>
<path d="M3505 3379 c-358 -48 -554 -198 -639 -491 -41 -142 -48 -244 -44
-613 4 -329 5 -343 31 -438 78 -292 221 -435 513 -514 99 -27 100 -27 444 -28
329 0 349 1 435 23 310 80 467 246 537 567 25 114 37 586 19 766 -36 366 -168
570 -429 666 -148 55 -226 65 -522 68 -151 2 -306 -1 -345 -6z m827 -369 c26
-6 62 -21 80 -34 29 -19 33 -28 36 -74 l3 -52 -630 0 -631 0 0 48 c0 75 43
106 170 122 101 13 916 5 972 -10z m118 -650 l0 -90 -630 0 -630 0 0 90 0 90
630 0 630 0 0 -90z m0 -500 c0 -89 -32 -121 -150 -151 -27 -7 -189 -13 -412
-16 -462 -6 -601 7 -665 61 -23 20 -27 33 -31 90 l-4 66 631 0 631 0 0 -50z"/>
<path d="M420 2251 c-58 -19 -129 -62 -163 -100 -56 -62 -53 -84 53 -344 98
-241 116 -313 100 -409 -4 -30 -41 -143 -81 -249 -89 -239 -93 -266 -47 -333
62 -93 165 -140 230 -105 29 15 211 394 238 494 45 166 35 357 -29 554 -51
160 -164 434 -190 463 -28 30 -71 42 -111 29z"/>
<path d="M1814 2240 c-23 -15 -54 -62 -115 -178 -137 -257 -168 -327 -195
-434 -44 -169 -26 -337 53 -493 42 -83 273 -434 296 -450 51 -36 127 -3 195
83 62 77 76 145 46 205 -9 18 -66 104 -126 191 -144 210 -151 225 -152 311 0
88 16 124 151 340 55 88 107 174 116 192 45 86 -3 171 -128 229 -61 29 -100
30 -141 4z"/>
</g>
</svg>
